<?xml version="1.0" encoding="iso-8859-1"?>
<!-- Uploaded to: SVG Repo, www.svgrepo.com, Generator: SVG Repo Mixer Tools -->
<svg fill="#000000" height="800px" width="800px" version="1.1" id="Layer_1" xmlns="http://www.w3.org/2000/svg" xmlns:xlink="http://www.w3.org/1999/xlink" 
	 viewBox="0 0 512 512" xml:space="preserve">
<g>
	<g>
		<path d="M472.607,259.45h-36.182c5.641-14.383,2.667-31.393-8.938-42.998c-9.143-9.143-21.623-13.04-33.893-11.342v-72.752
			c0-22.434-18.252-40.686-40.687-40.686h-65.818V87.87C287.089,39.419,247.671,0,199.22,0c-48.451,0-87.87,39.419-87.87,87.87
			v3.802H45.533c-22.434,0-40.686,18.252-40.686,40.686v338.956C4.847,493.748,23.099,512,45.533,512c11.454,0,378.22,0,403.505,0
			c19.049,0,34.544-15.497,34.544-34.544V339.707c13.686-4.596,23.57-17.545,23.57-32.757v-12.956
			C507.153,274.946,491.656,259.45,472.607,259.45z M394.629,239.877c2.596-2.412,6.696-2.382,9.257,0.178
			c2.542,2.542,2.601,6.643,0.178,9.257c-2.135,1.554-7.872,3.657-15.163,5.725C389.859,251.659,392.565,242.708,394.629,239.877z
			 M144.729,87.87h0.001c0-30.046,24.444-54.491,54.49-54.491s54.49,24.445,54.49,54.491v3.802h-108.98V87.87z M45.533,478.623
			v-0.002c-4.029,0-7.307-3.278-7.307-7.307V132.358c0-4.029,3.278-7.307,7.307-7.307h65.818v44.963
			c0,9.217,7.473,16.69,16.69,16.69s16.69-7.473,16.69-16.69v-44.963h108.98v44.963c0,9.217,7.473,16.69,16.69,16.69
			s16.69-7.473,16.69-16.69v-44.963h65.818c4.03,0,7.308,3.278,7.308,7.307v102.826c-0.006,0.016-0.01,0.031-0.016,0.047
			c-1.68,4.476-3.155,9.266-4.439,14.054c-2.656-9.895-7.219-24.021-14.038-31.72c-14.15-16.004-40.983-17.82-57.691-1.112
			c-11.515,11.514-14.615,28.539-8.947,42.998h-35.35c-19.049,0-34.544,15.497-34.544,34.544v12.956
			c0,15.213,9.885,28.162,23.57,32.757c0,4.565-0.011,138.008,0.02,138.914H45.533z M322.615,255.042
			c-3.335-0.946-12.123-3.548-15.151-5.722c-0.003-0.002-0.007-0.004-0.01-0.007c-2.424-2.616-2.363-6.716,0.178-9.257
			c2.56-2.56,6.66-2.592,9.257-0.179C319.021,242.807,321.621,251.535,322.615,255.042z M449.038,478.621
			c-198.03,0-186.9,0.567-186.9-1.165V341.494h188.065C450.203,485.967,450.77,478.621,449.038,478.621z M473.773,306.949
			c0,0.642-0.523,1.165-1.165,1.165c0,0-223.392,0-232.875,0c-0.643,0-1.165-0.523-1.165-1.165v-12.956
			c0-0.642,0.523-1.165,1.165-1.165c108.921,0,222.636,0,232.875,0c0.642,0.001,1.165,0.523,1.165,1.165V306.949z"/>
	</g>
</g>
</svg>